<?xml version="1.0" standalone="no"?>
<!DOCTYPE svg PUBLIC "-//W3C//DTD SVG 20010904//EN"
 "http://www.w3.org/TR/2001/REC-SVG-20010904/DTD/svg10.dtd">
<svg version="1.0" xmlns="http://www.w3.org/2000/svg"
 width="700.000000pt" height="700.000000pt" viewBox="0 0 700.000000 700.000000"
 preserveAspectRatio="xMidYMid meet">
<metadata>
Created by potrace 1.14, written by Peter Selinger 2001-2017
</metadata>
<g transform="translate(0.000000,700.000000) scale(0.100000,-0.100000)"
fill="#000000" stroke="none">
<path d="M2851 6424 c-96 -21 -294 -81 -386 -117 -44 -17 -82 -32 -85 -32 -27
-7 -269 -125 -350 -171 -414 -234 -786 -594 -1045 -1009 -152 -244 -283 -547
-349 -810 -29 -118 -49 -204 -51 -225 -1 -8 -5 -33 -9 -55 -24 -139 -31 -251
-31 -490 0 -195 10 -368 21 -386 2 -4 6 -31 10 -60 13 -115 73 -358 126 -509
107 -305 279 -615 488 -878 84 -107 294 -324 389 -402 29 -25 59 -49 65 -55
18 -16 117 -89 172 -127 295 -205 643 -360 994 -445 58 -13 114 -26 125 -28
11 -1 63 -10 115 -18 140 -24 254 -32 450 -32 292 1 480 24 775 99 163 41 427
145 604 238 94 50 319 188 344 211 6 7 30 24 52 39 22 16 54 40 72 55 17 16
53 46 80 68 273 226 556 588 722 925 73 147 178 413 195 493 3 12 14 56 25 97
11 41 23 91 26 110 3 19 10 53 15 75 5 22 11 60 15 85 3 25 8 56 10 70 15 93
19 171 19 370 1 292 -7 383 -54 620 -103 512 -349 997 -705 1389 -426 470
-964 778 -1597 915 -11 3 -18 -2 -19 -12 0 -23 -1 -1127 0 -1173 1 -35 2 -36
74 -64 401 -154 756 -483 946 -879 83 -173 147 -392 167 -571 9 -85 11 -297 3
-364 -4 -31 -10 -81 -14 -111 -3 -30 -18 -100 -32 -155 -151 -606 -612 -1092
-1205 -1271 -249 -74 -550 -98 -773 -59 -370 64 -647 191 -904 414 -283 246
-475 558 -566 918 -24 96 -27 117 -44 257 -10 91 -6 324 8 411 28 170 32 187
76 318 69 210 184 415 325 582 62 73 176 187 225 225 131 101 257 185 315 209
14 6 32 15 40 20 28 17 127 59 168 72 l42 12 0 614 c0 337 -3 613 -7 612 -5
-1 -37 -7 -72 -15z"/>
</g>
</svg>
