<?xml version="1.0" standalone="no"?>
<!DOCTYPE svg PUBLIC "-//W3C//DTD SVG 20010904//EN"
 "http://www.w3.org/TR/2001/REC-SVG-20010904/DTD/svg10.dtd">
<svg version="1.0" xmlns="http://www.w3.org/2000/svg"
 width="700.000000pt" height="700.000000pt" viewBox="0 0 700.000000 700.000000"
 preserveAspectRatio="xMidYMid meet">
<metadata>
Created by potrace 1.14, written by Peter Selinger 2001-2017
</metadata>
<g transform="translate(0.000000,700.000000) scale(0.100000,-0.100000)"
fill="#000000" stroke="none">
<path d="M3278 6996 c-1 -2 -39 -6 -83 -10 -400 -31 -838 -151 -1213 -333
-177 -86 -446 -246 -552 -330 -8 -6 -51 -40 -95 -74 -425 -331 -812 -824
-1020 -1299 -25 -58 -52 -118 -59 -135 -34 -76 -100 -273 -139 -415 -33 -117
-76 -345 -92 -480 -27 -231 -27 -670 0 -831 2 -13 6 -46 9 -74 46 -407 240
-953 466 -1318 30 -48 60 -95 65 -105 38 -68 237 -329 314 -412 235 -254 433
-426 688 -596 77 -52 145 -94 149 -94 4 0 15 -6 23 -14 27 -23 259 -139 390
-195 269 -116 598 -208 880 -247 25 -3 57 -8 71 -10 163 -25 682 -25 842 1 13
2 46 7 73 10 72 10 86 12 120 19 17 3 44 8 60 11 343 65 740 212 1039 384 49
28 91 51 93 51 10 0 268 180 353 247 152 119 324 280 450 422 36 41 70 79 76
85 29 30 185 242 240 326 207 316 358 654 455 1017 17 62 32 123 35 136 18 91
54 303 60 352 4 33 9 76 11 95 8 71 10 517 3 595 -17 172 -22 220 -25 225 -2
3 -6 30 -10 60 -3 30 -10 71 -15 90 -5 19 -12 51 -15 70 -13 75 -67 275 -106
392 -152 453 -407 888 -725 1237 -85 93 -258 261 -334 322 -36 30 -67 56 -70
59 -36 41 -336 243 -486 328 -343 191 -801 351 -1144 397 -19 3 -46 7 -60 10
-13 2 -54 7 -90 11 -36 3 -76 8 -90 11 -27 5 -536 14 -542 9z m97 -973 c-30
-45 -51 -112 -61 -202 -5 -35 0 -55 25 -105 42 -82 125 -184 157 -192 36 -9
78 13 147 76 86 78 101 103 99 166 0 30 4 56 9 59 19 12 7 63 -35 147 l-43 87
41 -5 c116 -12 117 -12 157 -58 71 -80 186 -111 236 -64 13 12 23 27 23 35 0
14 5 15 36 7 12 -3 26 -20 33 -40 20 -56 59 -65 106 -23 19 17 24 16 140 -30
133 -53 256 -113 353 -172 35 -22 67 -39 71 -40 19 -2 176 -128 174 -140 -1
-8 -16 -63 -33 -124 -36 -130 -68 -301 -63 -336 2 -13 8 -34 14 -46 14 -26
102 -90 174 -125 59 -29 86 -25 168 24 96 58 150 103 182 151 l18 28 50 -68
c27 -37 74 -105 103 -151 47 -71 53 -85 42 -102 -14 -23 0 -45 30 -45 44 0
202 -380 263 -633 l22 -93 -20 -37 c-15 -28 -20 -51 -17 -92 3 -47 20 -173 28
-205 2 -5 6 -31 10 -57 5 -26 17 -55 27 -64 16 -14 19 -31 19 -95 l0 -79 -44
6 c-67 10 -176 -35 -176 -71 0 -22 52 -44 121 -51 35 -3 67 -8 71 -10 21 -13
-13 -261 -58 -422 -23 -86 -85 -266 -93 -275 -5 -4 -36 9 -70 29 -45 27 -61
42 -58 54 5 20 -31 75 -133 204 -79 100 -111 126 -154 126 -29 0 -107 -36
-145 -67 l-24 -20 -156 90 c-86 49 -157 90 -158 91 0 1 -4 19 -7 41 -11 72
-18 99 -38 142 -21 44 -46 59 -123 68 -21 3 -51 8 -67 10 -15 3 -72 6 -125 6
-90 1 -103 4 -153 32 -106 58 -145 80 -163 91 -10 6 -28 29 -39 51 -53 103
-80 120 -208 131 -74 6 -103 18 -220 88 -19 12 -47 28 -62 35 -16 8 -27 15
-25 16 1 2 32 5 69 7 73 6 105 24 145 83 35 52 38 85 13 128 l-22 37 43 -19
c93 -42 200 24 215 132 6 41 4 48 -21 71 -33 31 -255 162 -354 210 -87 41
-104 38 -144 -26 -34 -55 -37 -99 -9 -137 l20 -28 -38 11 c-29 7 -45 7 -62 -3
-32 -17 -80 -103 -114 -202 -16 -46 -30 -86 -32 -89 -3 -4 -98 45 -114 59 -4
4 2 31 13 61 38 98 48 148 37 181 -5 16 -11 29 -12 29 -2 0 -54 11 -117 25
-225 50 -291 51 -352 7 l-43 -30 -82 46 c-45 26 -82 49 -82 52 0 3 16 14 36
25 39 21 68 55 102 120 35 65 80 171 102 236 32 93 24 102 -208 216 -74 36
-144 65 -157 66 -33 0 -100 -37 -100 -54 0 -14 5 -16 57 -18 24 -1 26 -4 19
-28 -4 -16 -6 -37 -5 -48 2 -11 5 -42 9 -70 5 -40 2 -56 -13 -81 -19 -30 -21
-30 -77 -24 -32 4 -69 5 -83 4 -30 -4 -66 -36 -83 -76 -6 -16 -17 -27 -24 -25
-6 3 -56 31 -111 63 -54 33 -116 68 -137 79 l-38 20 51 45 c28 25 50 50 50 56
0 20 -55 61 -100 76 -53 17 -134 17 -178 -1 -27 -11 -31 -17 -26 -37 6 -23 2
-22 -72 22 -99 58 -101 59 -108 90 -4 13 -18 49 -33 80 l-26 55 29 32 c16 17
56 60 89 95 l60 63 5 -88 c5 -74 10 -94 33 -128 37 -56 77 -77 157 -83 120 -8
169 24 208 142 23 68 20 105 -14 164 -32 54 -86 90 -169 111 l-65 17 63 46
c123 90 306 208 323 208 2 0 4 -9 4 -21 0 -11 5 -29 10 -39 10 -19 11 -19 48
2 58 34 194 138 227 175 25 27 54 41 165 77 74 24 140 41 145 39 6 -3 24 -23
40 -46 38 -52 105 -100 128 -92 9 4 19 16 22 26 4 11 17 30 30 43 12 13 37 47
54 77 l31 54 1 -35 c2 -68 7 -98 17 -115 9 -17 11 -15 26 12 8 17 19 56 22 87
7 61 4 59 102 64 l53 2 -26 -37z m-1760 -1960 c16 -37 18 -38 43 -22 15 9 28
5 72 -22 30 -18 57 -34 58 -35 2 -1 -15 -33 -37 -71 -49 -82 -51 -115 -16
-208 43 -116 75 -146 245 -229 52 -26 102 -51 110 -55 24 -13 83 -25 105 -22
34 4 102 49 134 88 29 35 29 37 15 71 -8 19 -32 61 -54 93 -22 33 -37 59 -32
59 4 0 38 -18 76 -40 37 -22 70 -40 71 -40 2 0 32 -17 66 -38 35 -22 84 -50
109 -64 67 -37 300 -172 423 -244 59 -35 109 -64 111 -64 18 0 107 -67 112
-84 13 -40 86 -146 115 -166 35 -25 130 -46 224 -49 66 -2 76 -6 187 -69 l117
-67 -44 -12 c-54 -16 -87 -54 -134 -153 -34 -72 -35 -79 -35 -190 0 -93 3
-122 18 -150 26 -48 135 -151 193 -182 42 -23 52 -25 81 -15 46 17 120 92 132
136 5 20 10 57 10 82 0 48 -29 229 -54 332 -7 31 -12 57 -10 57 4 0 111 -58
122 -66 5 -3 10 -44 17 -133 3 -46 10 -94 15 -107 5 -13 7 -24 4 -24 -2 0 3
-14 11 -31 19 -36 78 -64 143 -68 25 -2 11 -34 -40 -87 l-51 -54 32 -45 c35
-49 38 -82 6 -77 -11 1 -50 5 -86 8 -66 6 -66 6 -110 -32 -78 -69 -97 -107
-98 -197 -1 -64 16 -106 51 -129 29 -18 105 -48 138 -55 48 -9 135 -10 152 -2
25 13 107 14 120 1 8 -8 1 -16 -26 -28 -20 -10 -35 -23 -33 -28 9 -27 105 -54
150 -42 31 7 36 25 43 156 6 98 5 109 -19 162 -28 63 -29 62 40 97 46 23 88
71 98 113 14 55 30 53 79 -10 30 -40 60 -66 91 -81 46 -21 47 -21 78 -4 18 10
52 48 75 83 24 36 47 66 51 68 7 2 344 -188 359 -202 3 -4 0 -5 -8 -2 -8 3
-30 7 -47 10 -41 5 -44 -14 -9 -65 18 -26 21 -40 15 -52 -13 -23 -29 -22 -29
2 0 19 -44 90 -64 103 -19 13 -46 9 -104 -18 -122 -55 -147 -95 -89 -138 23
-17 45 -21 110 -23 44 -1 90 3 101 8 12 5 -17 -26 -64 -71 -73 -69 -89 -79
-110 -74 -71 18 -99 14 -148 -26 -73 -57 -120 -117 -130 -164 -7 -36 -15 -45
-67 -78 -62 -38 -80 -42 -80 -17 0 8 -10 14 -25 14 -20 0 -30 -9 -47 -46 -21
-44 -27 -48 -130 -93 -103 -44 -163 -63 -96 -30 18 9 42 31 53 49 20 32 29
112 16 134 -23 37 -382 161 -467 161 -36 0 -38 -2 -75 -78 -38 -75 -39 -80
-38 -177 1 -69 6 -112 17 -139 23 -53 22 -56 -15 -45 -78 22 -108 9 -108 -45
0 -13 -6 -23 -12 -23 -7 0 -45 -3 -85 -7 -139 -11 -496 -5 -512 10 -2 2 2 15
9 29 11 21 11 29 -1 51 -27 51 -310 309 -377 343 -49 26 -63 7 -147 -197 -21
-50 -41 -92 -45 -92 -7 0 -82 30 -88 34 -1 2 11 36 28 76 38 92 49 150 28 150
-28 0 -145 -94 -149 -120 -3 -26 -10 -55 -14 -58 -13 -14 -393 211 -487 289
l-28 22 28 17 c15 9 48 48 74 87 57 85 168 299 168 324 0 31 -37 42 -122 36
-43 -4 -82 -8 -86 -11 -4 -2 -25 -7 -47 -10 -93 -15 -233 -68 -250 -97 -4 -6
13 -41 38 -77 63 -92 75 -121 56 -133 -18 -12 -195 170 -304 312 -146 190
-314 484 -328 574 -11 71 -36 139 -61 168 -33 39 -100 288 -122 457 -3 30 -8
66 -10 80 -4 30 -17 226 -17 255 0 11 1 61 2 111 l1 90 122 48 c164 65 360
161 389 192 22 23 24 35 26 132 1 59 2 111 2 115 1 5 28 -7 62 -25 44 -24 64
-42 74 -65z m3047 -1736 c65 -37 68 -40 63 -70 -10 -53 -19 -58 -51 -29 -35
33 -98 72 -117 72 -26 0 -31 26 -10 53 20 28 20 28 115 -26z m-55 -63 c30 -8
40 -36 10 -30 -34 7 -57 17 -57 27 0 10 16 11 47 3z m182 -85 c17 -6 32 -14
32 -17 4 -24 5 -72 2 -72 -5 0 -50 52 -71 82 -15 21 -7 22 37 7z"/>
<path d="M2698 5870 c-43 -28 -185 -172 -236 -239 -51 -67 -29 -156 44 -187
56 -23 90 -17 155 27 33 22 66 38 74 35 20 -7 9 -60 -27 -131 -17 -33 -38 -73
-46 -88 -13 -26 -13 -31 4 -48 24 -24 201 -122 324 -179 86 -40 102 -44 170
-44 132 1 172 39 199 190 20 110 17 155 -17 216 -40 74 -119 193 -137 208 -26
21 -59 2 -102 -60 -33 -46 -49 -60 -68 -60 -30 0 -32 18 -10 80 33 95 15 126
-69 117 -68 -7 -83 4 -90 68 -4 42 -12 56 -45 88 -22 20 -49 37 -59 37 -10 0
-39 -14 -64 -30z"/>
<path d="M3908 5812 c-34 -7 -18 -45 25 -61 24 -10 29 -8 36 12 5 12 6 27 4
33 -5 13 -39 22 -65 16z"/>
<path d="M4307 5713 c-10 -3 -22 -15 -27 -29 -20 -51 67 -184 120 -184 32 0
118 54 169 107 l34 36 -29 15 c-79 42 -212 69 -267 55z"/>
<path d="M4853 5576 c-26 -12 -65 -56 -49 -56 3 0 0 -13 -5 -29 -6 -17 -32
-47 -57 -67 -26 -21 -53 -44 -60 -53 -25 -31 -39 19 -41 152 -1 26 -5 47 -11
47 -13 0 -113 -104 -147 -153 -33 -47 -33 -95 -2 -228 27 -116 51 -167 84
-175 53 -13 192 36 219 79 20 30 48 119 86 264 60 234 58 252 -17 219z"/>
<path d="M4057 5528 c-26 -62 -39 -138 -34 -199 4 -56 1 -66 -41 -151 -43 -83
-46 -95 -46 -166 0 -55 5 -87 18 -110 16 -31 21 -33 50 -28 39 7 216 76 276
106 24 12 45 32 51 48 13 33 4 119 -25 243 -33 143 -121 265 -203 283 -30 7
-33 5 -46 -26z"/>
<path d="M3773 5493 c-79 -54 -169 -137 -188 -173 -15 -30 -41 -126 -50 -187
-14 -97 -14 -109 -4 -140 11 -35 139 -162 189 -188 24 -13 38 -14 70 -5 48 13
58 25 23 28 -15 1 -29 4 -31 7 -3 2 9 36 26 74 18 39 38 103 47 143 10 49 26
89 49 123 74 107 77 173 14 338 -17 43 -62 37 -145 -20z"/>
<path d="M2245 5460 c10 -11 20 -18 23 -15 7 6 -18 35 -31 35 -5 0 -2 -9 8
-20z"/>
<path d="M2371 5286 c-24 -29 -9 -146 19 -146 6 0 19 14 30 32 17 29 18 34 4
67 -21 52 -37 66 -53 47z"/>
<path d="M2252 5157 c-32 -38 -53 -149 -32 -162 13 -8 75 37 97 72 15 23 15
27 0 51 -24 40 -51 56 -65 39z"/>
<path d="M4724 4890 c-119 -34 -129 -51 -120 -205 14 -251 24 -279 106 -311
127 -50 156 -36 54 26 -34 20 -51 37 -46 42 6 6 28 -4 58 -25 65 -47 143 -77
170 -66 56 20 147 203 159 317 3 37 -1 48 -27 78 -31 35 -178 137 -213 148
-44 13 -83 12 -141 -4z"/>
<path d="M4345 4850 c-11 -5 -54 -21 -95 -35 -41 -15 -88 -33 -105 -40 -16 -7
-83 -35 -147 -60 -64 -26 -125 -56 -135 -67 -17 -19 -17 -21 12 -44 39 -32
303 -182 381 -217 79 -35 116 -39 153 -16 60 37 64 52 58 232 -3 89 -11 179
-17 199 -15 53 -54 70 -105 48z"/>
<path d="M5504 4842 c-115 -64 -201 -148 -227 -219 -17 -48 -27 -156 -15 -168
8 -9 78 28 117 61 18 15 50 53 72 86 22 33 55 68 72 78 62 37 109 75 123 101
13 26 12 28 -24 53 -44 30 -75 32 -118 8z"/>
<path d="M3260 4829 c-25 -4 -57 -12 -72 -18 -31 -12 -80 -82 -134 -193 -19
-40 -39 -81 -44 -90 -16 -28 -11 -74 9 -92 41 -37 374 -77 444 -53 48 16 137
144 137 196 0 34 -39 90 -106 151 -108 100 -141 114 -234 99z"/>
<path d="M5591 4540 c-24 -12 -45 -29 -51 -44 -10 -28 -22 -33 -111 -41 -112
-9 -159 -29 -159 -66 0 -44 145 -234 194 -254 57 -24 302 -1 353 32 42 27 93
163 52 138 -18 -12 -83 -13 -106 -2 -26 12 -28 29 -10 83 17 49 8 89 -31 132
-36 40 -75 46 -131 22z"/>
<path d="M5132 4263 c-7 -3 -19 -18 -27 -34 -14 -26 -14 -32 5 -72 31 -66 90
-127 125 -131 31 -4 81 19 89 40 7 19 -40 107 -85 158 -40 45 -67 55 -107 39z"/>
<path d="M4459 4177 c-80 -40 -113 -141 -113 -347 l0 -115 43 -83 c55 -104 93
-137 169 -147 116 -14 336 -15 354 -2 42 33 140 295 142 382 1 44 -5 59 -48
123 -63 96 -116 135 -235 173 -131 42 -249 48 -312 16z"/>
<path d="M5677 3954 c-1 -1 -33 -4 -72 -8 -90 -8 -136 -21 -208 -58 -62 -33
-75 -56 -58 -101 10 -26 31 -38 31 -17 0 5 9 14 19 20 24 12 67 -2 95 -32 32
-35 134 -95 171 -102 19 -4 35 -11 35 -17 0 -5 -11 -37 -25 -71 -30 -74 -32
-137 -7 -169 l19 -22 59 33 c147 83 164 104 158 194 -2 34 -6 70 -9 82 -2 12
-7 39 -10 60 -14 95 -40 186 -56 195 -13 7 -135 18 -142 13z"/>
<path d="M4092 3899 c-76 -38 -107 -110 -56 -129 42 -16 109 -12 135 9 42 34
27 141 -20 141 -9 0 -35 -10 -59 -21z"/>
<path d="M5193 3702 c-16 -10 -28 -62 -15 -62 17 0 62 22 62 31 0 32 -22 47
-47 31z"/>
<path d="M5423 3635 l-22 -16 26 -72 c14 -40 36 -93 49 -118 20 -40 26 -46 48
-42 54 11 91 133 60 195 -29 57 -115 85 -161 53z"/>
<path d="M5116 3528 c-25 -63 -32 -141 -13 -156 12 -10 21 -5 51 28 43 48 46
81 11 133 -14 20 -27 37 -29 37 -2 0 -11 -19 -20 -42z"/>
<path d="M5305 3245 l-29 -13 34 -21 c42 -25 63 -26 84 -5 45 44 -16 71 -89
39z"/>
<path d="M5688 3222 c-37 -19 -45 -41 -28 -82 l12 -28 94 3 c52 1 98 5 102 10
10 10 -81 91 -117 103 -23 8 -37 7 -63 -6z"/>
<path d="M5119 3184 c-4 -46 3 -91 17 -112 13 -20 21 -22 57 -17 48 7 91 43
82 67 -9 24 -82 69 -121 75 -28 5 -34 2 -35 -13z"/>
<path d="M5867 2812 c-24 -27 -21 -65 8 -92 23 -22 27 -22 41 -8 19 19 26 75
12 101 -11 22 -41 22 -61 -1z"/>
<path d="M1495 3713 c-53 -13 -225 -76 -321 -118 -114 -50 -170 -82 -193 -109
-17 -20 -21 -95 -10 -191 24 -222 25 -233 40 -287 27 -103 154 -162 239 -111
17 10 43 35 58 57 23 34 27 49 27 115 1 49 8 99 22 141 26 83 23 156 -13 244
-15 37 -24 69 -21 72 5 5 57 -58 75 -91 5 -11 13 -51 17 -89 7 -74 27 -136 44
-136 13 0 46 53 88 140 61 129 72 184 47 256 -16 49 -59 115 -72 113 -4 -1
-16 -4 -27 -6z"/>
<path d="M2645 3413 c-126 -15 -242 -74 -318 -163 -64 -75 -78 -188 -34 -284
31 -67 148 -193 204 -218 57 -25 78 -15 152 76 34 42 65 76 68 76 6 0 -1 -66
-10 -105 -23 -93 -24 -103 -10 -136 17 -41 61 -89 82 -89 8 0 27 12 43 27 26
25 29 25 46 10 28 -26 43 -21 118 35 131 97 194 169 194 221 0 33 -24 93 -70
177 -56 101 -63 112 -95 155 -59 79 -63 77 -173 -110 -47 -80 -89 -131 -99
-122 -9 10 13 100 57 237 47 141 44 171 -13 202 -22 11 -92 17 -142 11z"/>
<path d="M1730 3394 c-54 -34 -270 -447 -254 -488 11 -29 61 -39 200 -40 l112
-1 96 49 c162 82 206 124 220 212 12 71 -1 111 -48 143 -66 45 -171 99 -236
121 -70 24 -59 23 -90 4z"/>
<path d="M2120 2850 c-13 -9 -13 -11 -1 -19 12 -8 3 -22 -40 -69 -30 -33 -57
-58 -61 -55 -4 2 0 26 8 53 18 61 13 73 -24 57 -75 -32 -104 -59 -130 -118
-16 -38 -31 -59 -42 -59 -9 0 -38 16 -65 34 l-49 35 -155 -3 c-211 -5 -268
-29 -241 -101 7 -18 14 -21 35 -17 24 4 26 3 19 -24 -4 -16 -10 -38 -14 -49
-12 -33 10 -63 62 -87 26 -12 48 -24 48 -28 0 -3 -17 -4 -37 -2 -21 2 -46 -3
-56 -10 -23 -17 -30 -92 -12 -135 19 -45 115 -144 182 -189 50 -33 58 -35 111
-30 31 3 73 10 92 16 23 7 36 7 38 0 6 -16 54 -12 128 11 69 21 104 42 104 63
0 6 -17 36 -37 66 -61 90 -64 99 -47 132 23 44 58 38 113 -20 25 -27 68 -72
95 -100 49 -53 75 -63 95 -39 11 14 55 189 66 267 4 24 8 47 10 50 2 3 7 38
11 78 6 65 4 77 -20 125 -26 53 -91 130 -136 160 -28 20 -30 20 -50 7z m-90
-390 c0 -46 -22 -64 -39 -32 -7 14 -6 25 5 41 17 24 34 20 34 -9z"/>
<path d="M3342 2789 c-26 -10 -28 -35 -6 -60 18 -20 44 -15 44 8 0 12 8 14 37
10 39 -7 72 -38 73 -69 0 -21 37 -33 55 -18 18 15 37 83 29 103 -9 24 -186 43
-232 26z"/>
<path d="M3227 2640 c-54 -16 -291 -217 -318 -270 -10 -19 -21 -53 -24 -75 -3
-22 -8 -46 -10 -53 -3 -7 -7 -52 -11 -101 -5 -69 -3 -94 9 -117 31 -61 123
-59 239 4 152 82 311 186 363 236 l33 31 -4 90 c-5 113 -18 153 -52 167 -15 5
-71 10 -125 11 l-97 0 35 25 c33 23 47 52 26 52 -5 0 -15 2 -23 4 -7 2 -26 0
-41 -4z"/>
<path d="M2464 2586 c-13 -9 -25 -35 -32 -68 -21 -96 -42 -227 -48 -306 -3
-42 -7 -79 -7 -82 -3 -16 17 -50 36 -63 50 -32 167 -43 214 -20 55 26 100 177
91 303 -4 62 -23 97 -95 176 -62 67 -118 88 -159 60z"/>
<path d="M3512 2130 c-53 -24 -210 -131 -241 -164 -31 -33 -18 -50 52 -71 66
-20 69 -19 102 11 45 41 71 47 120 25 23 -10 60 -35 82 -55 65 -58 151 -84
181 -54 16 16 15 83 -2 116 -22 41 -169 180 -210 197 -42 18 -32 19 -84 -5z"/>
<path d="M5162 1953 c-20 -21 -43 -51 -51 -66 -24 -46 -2 -50 69 -14 57 28 65
36 65 61 0 19 -8 34 -23 44 -21 14 -24 13 -60 -25z"/>
<path d="M4686 1911 c-20 -22 -21 -69 -1 -91 13 -15 13 -20 1 -46 -14 -27 -19
-69 -17 -121 1 -28 28 -30 74 -7 44 23 81 66 95 111 11 34 10 40 -9 56 -12 9
-27 17 -34 17 -7 0 -16 15 -19 34 -10 55 -60 80 -90 47z"/>
<path d="M2318 1866 c-18 -13 -155 -240 -191 -316 -44 -96 -44 -105 0 -133 71
-45 170 -78 209 -71 43 8 111 60 222 169 87 86 102 114 97 185 -4 52 -28 87
-81 118 -77 44 -223 72 -256 48z"/>
<path d="M2995 1779 c-70 -13 -93 -27 -115 -68 -48 -96 -25 -130 298 -443 175
-169 213 -190 369 -202 65 -5 74 4 141 144 126 266 154 380 102 417 -40 29
-90 44 -165 50 -63 4 -74 2 -106 -20 l-36 -25 -54 34 c-62 39 -136 64 -188 64
-20 0 -69 -10 -109 -21 -40 -12 -74 -20 -76 -18 -2 2 -6 17 -8 33 l-3 29 77
-2 c42 -1 79 2 82 7 7 12 -91 34 -135 30 -19 -1 -52 -5 -74 -9z"/>
</g>
</svg>
